<?xml version="1.0" encoding="UTF-8"?>
<svg xmlns="http://www.w3.org/2000/svg" xmlns:xlink="http://www.w3.org/1999/xlink" width="50pt" height="50pt" viewBox="0 0 50 50" version="1.1">
<g id="surface1">
<path style=" stroke:none;fill-rule:nonzero;fill:rgb(74.117647%,49.803922%,0%);fill-opacity:1;" d="M 44.53125 27.648438 C 44.53125 31.320312 42.546875 34.703125 39.34375 36.5 L 25 44.53125 L 10.65625 36.5 C 8.300781 35.183594 6.570312 32.980469 5.839844 30.382812 C 5.109375 27.789062 5.441406 25.007812 6.765625 22.65625 L 10.304688 16.40625 L 12.210938 13.007812 C 14.132812 9.570312 17.363281 7.058594 21.164062 6.027344 C 24.964844 5 29.019531 5.542969 32.414062 7.539062 C 33.003906 7.882812 33.566406 8.269531 34.101562 8.695312 C 35.601562 9.882812 36.855469 11.355469 37.789062 13.023438 L 39.695312 16.40625 L 43.234375 22.65625 C 44.089844 24.179688 44.535156 25.898438 44.53125 27.648438 Z M 44.53125 27.648438 "/>
<path style=" stroke:none;fill-rule:nonzero;fill:rgb(93.72549%,77.254902%,53.72549%);fill-opacity:1;" d="M 44.53125 10.9375 C 44.550781 13.726562 42.46875 16.082031 39.695312 16.40625 L 37.789062 12.96875 C 36.855469 11.300781 35.601562 9.828125 34.101562 8.640625 C 35.183594 6.3125 37.734375 5.050781 40.238281 5.601562 C 42.746094 6.152344 44.53125 8.371094 44.53125 10.9375 Z M 44.53125 10.9375 "/>
<path style=" stroke:none;fill-rule:nonzero;fill:rgb(93.72549%,77.254902%,53.72549%);fill-opacity:1;" d="M 15.898438 8.640625 C 14.398438 9.828125 13.144531 11.300781 12.210938 12.96875 L 10.304688 16.40625 C 7.683594 16.105469 5.65625 13.972656 5.480469 11.339844 C 5.300781 8.710938 7.023438 6.328125 9.582031 5.675781 C 12.136719 5.023438 14.792969 6.285156 15.898438 8.679688 Z M 15.898438 8.640625 "/>
<path style=" stroke:none;fill-rule:nonzero;fill:rgb(93.72549%,77.254902%,53.72549%);fill-opacity:1;" d="M 34.820312 26.671875 L 30.265625 35.15625 C 29.21875 37.085938 27.195312 38.285156 25 38.28125 C 22.804688 38.285156 20.78125 37.085938 19.734375 35.15625 L 15.179688 26.671875 C 14.144531 26.671875 13.175781 26.175781 12.566406 25.335938 C 11.964844 24.5 11.796875 23.417969 12.125 22.4375 L 14.164062 16.328125 C 14.429688 15.527344 15.007812 14.871094 15.769531 14.5 C 16.527344 14.132812 17.402344 14.089844 18.195312 14.375 L 25 16.851562 L 31.804688 14.375 C 32.597656 14.089844 33.472656 14.132812 34.230469 14.5 C 34.992188 14.871094 35.570312 15.527344 35.835938 16.328125 L 37.875 22.4375 C 38.203125 23.417969 38.035156 24.5 37.433594 25.335938 C 36.824219 26.175781 35.855469 26.671875 34.820312 26.671875 Z M 34.820312 26.671875 "/>
<path style=" stroke:none;fill-rule:nonzero;fill:rgb(17.647059%,17.647059%,17.647059%);fill-opacity:1;" d="M 21.09375 20.703125 C 21.09375 21.347656 20.566406 21.875 19.921875 21.875 C 19.277344 21.875 18.75 21.347656 18.75 20.703125 C 18.75 20.058594 19.277344 19.53125 19.921875 19.53125 C 20.566406 19.53125 21.09375 20.058594 21.09375 20.703125 Z M 21.09375 20.703125 "/>
<path style=" stroke:none;fill-rule:nonzero;fill:rgb(17.647059%,17.647059%,17.647059%);fill-opacity:1;" d="M 31.25 20.703125 C 31.25 21.347656 30.722656 21.875 30.078125 21.875 C 29.433594 21.875 28.90625 21.347656 28.90625 20.703125 C 28.90625 20.058594 29.433594 19.53125 30.078125 19.53125 C 30.722656 19.53125 31.25 20.058594 31.25 20.703125 Z M 31.25 20.703125 "/>
<path style=" stroke:none;fill-rule:nonzero;fill:rgb(24.313725%,17.254902%,15.294118%);fill-opacity:1;" d="M 25 32.8125 C 24.570312 32.8125 24.21875 32.460938 24.21875 32.03125 L 24.21875 28.125 C 24.21875 27.695312 24.570312 27.34375 25 27.34375 C 25.429688 27.34375 25.78125 27.695312 25.78125 28.125 L 25.78125 32.03125 C 25.78125 32.460938 25.429688 32.8125 25 32.8125 Z M 25 32.8125 "/>
<path style=" stroke:none;fill-rule:nonzero;fill:rgb(24.313725%,17.254902%,15.294118%);fill-opacity:1;" d="M 22.65625 34.375 C 22.316406 34.375 22.011719 34.148438 21.914062 33.816406 C 21.816406 33.488281 21.941406 33.136719 22.226562 32.945312 L 24.570312 31.382812 C 24.925781 31.191406 25.367188 31.300781 25.59375 31.640625 C 25.8125 31.976562 25.742188 32.425781 25.429688 32.679688 L 23.085938 34.242188 C 22.960938 34.328125 22.8125 34.375 22.65625 34.375 Z M 22.65625 34.375 "/>
<path style=" stroke:none;fill-rule:nonzero;fill:rgb(24.313725%,17.254902%,15.294118%);fill-opacity:1;" d="M 27.34375 34.375 C 27.1875 34.375 27.039062 34.328125 26.914062 34.242188 L 24.570312 32.679688 C 24.257812 32.425781 24.1875 31.976562 24.40625 31.640625 C 24.632812 31.300781 25.074219 31.191406 25.429688 31.382812 L 27.773438 32.945312 C 28.058594 33.136719 28.183594 33.488281 28.085938 33.816406 C 27.988281 34.148438 27.683594 34.375 27.34375 34.375 Z M 27.34375 34.375 "/>
<path style=" stroke:none;fill-rule:nonzero;fill:rgb(24.313725%,17.254902%,15.294118%);fill-opacity:1;" d="M 25 29.203125 L 23.257812 28.328125 C 22.886719 28.140625 22.65625 27.761719 22.65625 27.34375 C 22.65625 26.746094 23.144531 26.257812 23.742188 26.257812 L 26.257812 26.257812 C 26.855469 26.257812 27.34375 26.746094 27.34375 27.34375 C 27.339844 27.753906 27.109375 28.125 26.742188 28.3125 Z M 25 29.203125 "/>
</g>
</svg>
